<?xml version="1.0" encoding="UTF-8" standalone="no"?>
<svg
   xmlns:osb="http://www.openswatchbook.org/uri/2009/osb"
   xmlns:dc="http://purl.org/dc/elements/1.1/"
   xmlns:cc="http://creativecommons.org/ns#"
   xmlns:rdf="http://www.w3.org/1999/02/22-rdf-syntax-ns#"
   xmlns:svg="http://www.w3.org/2000/svg"
   xmlns="http://www.w3.org/2000/svg"
   xmlns:sodipodi="http://sodipodi.sourceforge.net/DTD/sodipodi-0.dtd"
   xmlns:inkscape="http://www.inkscape.org/namespaces/inkscape"
   width="200"
   height="200"
   viewBox="0 0 52.916665 52.916668"
   version="1.1"
   id="svg8"
   inkscape:version="1.0.1 (3bc2e813f5, 2020-09-07)"
   sodipodi:docname="logo.svg"
   inkscape:export-filename="D:\Users\spyki\Documents\_College\CSCI 490\prse\misc\logo.png"
   inkscape:export-xdpi="96"
   inkscape:export-ydpi="96">
  <defs
     id="defs2">
    <linearGradient
       id="linearGradient4540"
       osb:paint="solid">
      <stop
         style="stop-color:#b3b3b3;stop-opacity:1;"
         offset="0"
         id="stop4538" />
    </linearGradient>
  </defs>
  <sodipodi:namedview
     id="base"
     pagecolor="#606060"
     bordercolor="#000000"
     borderopacity="1"
     inkscape:pageopacity="1"
     inkscape:pageshadow="2"
     inkscape:zoom="0.98994949"
     inkscape:cx="188.71419"
     inkscape:cy="163.77593"
     inkscape:document-units="mm"
     inkscape:current-layer="text6025"
     showgrid="false"
     inkscape:window-width="1375"
     inkscape:window-height="1041"
     inkscape:window-x="208"
     inkscape:window-y="251"
     inkscape:window-maximized="0"
     units="px"
     inkscape:pagecheckerboard="true"
     inkscape:showpageshadow="false"
     borderlayer="true"
     inkscape:snap-page="true"
     inkscape:snap-bbox="true"
     inkscape:bbox-paths="true"
     inkscape:snap-text-baseline="true"
     inkscape:bbox-nodes="true"
     inkscape:snap-bbox-edge-midpoints="true"
     inkscape:snap-bbox-midpoints="true"
     inkscape:object-paths="true"
     inkscape:snap-intersection-paths="true"
     inkscape:snap-smooth-nodes="true"
     inkscape:snap-midpoints="true"
     inkscape:snap-object-midpoints="true"
     inkscape:snap-center="true"
     showguides="false"
     inkscape:document-rotation="0" />
  <metadata
     id="metadata5">
    <rdf:RDF>
      <cc:Work
         rdf:about="">
        <dc:format>image/svg+xml</dc:format>
        <dc:type
           rdf:resource="http://purl.org/dc/dcmitype/StillImage" />
        <dc:title />
      </cc:Work>
    </rdf:RDF>
  </metadata>
  <g
     inkscape:label="Background"
     inkscape:groupmode="layer"
     id="layer1"
     transform="translate(0,-244.08332)"
     style="opacity:1"
     sodipodi:insensitive="true">
    <rect
       style="fill:#000000;fill-opacity:0;stroke-width:0.26458332"
       id="rect10"
       width="23.056549"
       height="25.040924"
       x="-1.984375"
       y="243.70534" />
    <rect
       style="fill:#000000;fill-opacity:1;stroke-width:0.26458332"
       id="rect12"
       width="52.916664"
       height="52.916664"
       x="0"
       y="244.08331" />
    <text
       xml:space="preserve"
       style="font-style:normal;font-weight:normal;font-size:10.5833px;line-height:1.25;font-family:sans-serif;letter-spacing:0px;word-spacing:0px;fill:#000000;fill-opacity:1;stroke:none;stroke-width:0.264583"
       x="6.614583"
       y="255.89508"
       id="text6004" />
  </g>
  <g
     inkscape:groupmode="layer"
     id="layer2"
     inkscape:label="text">
    <text
       xml:space="preserve"
       style="font-style:normal;font-variant:normal;font-weight:normal;font-stretch:normal;font-size:22.5778px;line-height:1.25;font-family:'3270 Condensed';-inkscape-font-specification:'3270 Condensed, ';letter-spacing:0px;word-spacing:0px;fill:#ffffff;fill-opacity:1;stroke:none;stroke-width:0.264583"
       x="1.4427108"
       y="0"
       id="text6009"><tspan
         sodipodi:role="line"
         x="0"
         y="0"
         style="font-size:22.5778px;line-height:26.6356px;text-align:start;letter-spacing:0px;text-anchor:start;fill:#ffffff;stroke-width:0.264583"
         dx="0"
         id="tspan6015"><tspan
           id="tspan6017"
           style="font-size:22.5778px;line-height:26.6356px;text-align:start;letter-spacing:0px;text-anchor:start;fill:#ffffff;stroke-width:0.264583" /></tspan></text>
    <g
       aria-label="}"
       transform="scale(0.82637888,1.2100987)"
       id="text6025"
       style="font-style:normal;font-variant:normal;font-weight:normal;font-stretch:normal;font-size:61.473px;line-height:1.25;font-family:'3270Medium Nerd Font';-inkscape-font-specification:'3270Medium Nerd Font';letter-spacing:0px;word-spacing:0px;fill:#ffffff;fill-opacity:1;stroke:none;stroke-width:0.320172">
      <path
         d="m 45.875926,1.0315186 h 5.53257 q 0.860622,0 1.290933,0.553257 l 3.872799,3.7498529 q 0.553257,0.553257 0.553257,1.290933 V 17.198917 l 2.581866,2.643339 h 2.213028 v 3.68838 h -2.213028 l -2.581866,2.704812 v 10.511883 q 0,0.799149 -0.553257,1.352406 l -3.872799,3.749853 q -0.553257,0.553257 -1.290933,0.553257 0,0 -5.53257,0 0,0 0,-3.68838 h 4.794894 l 2.766285,-2.704812 V 25.497772 q 0,-0.799149 0.491784,-1.290933 l 2.397447,-2.520393 -2.397447,-2.45892 Q 53.437105,18.735742 53.437105,17.936593 V 7.4247105 L 50.67082,4.7198986 h -4.794894 z"
         style="font-style:normal;font-variant:normal;font-weight:normal;font-stretch:normal;font-size:61.473px;font-family:'3270Medium Nerd Font Mono';-inkscape-font-specification:'3270Medium Nerd Font Mono';fill:#ffffff;stroke-width:0.320172"
         id="path35" />
    </g>
    <g
       aria-label="}"
       transform="scale(-0.82637887,1.2100987)"
       id="text6029"
       style="font-style:normal;font-variant:normal;font-weight:normal;font-stretch:normal;font-size:61.473px;line-height:1.25;font-family:'3270Medium Nerd Font';-inkscape-font-specification:'3270Medium Nerd Font';letter-spacing:0px;word-spacing:0px;fill:#ffffff;fill-opacity:1;stroke:none;stroke-width:0.320172">
      <path
         d="m -18.081481,1.0315186 h 5.53257 q 0.860622,0 1.290933,0.553257 l 3.8727987,3.7498529 q 0.553257,0.553257 0.553257,1.290933 V 17.198917 l 2.581866,2.643339 h 2.213028 v 3.68838 h -2.213028 l -2.581866,2.704812 v 10.511883 q 0,0.799149 -0.553257,1.352406 l -3.8727987,3.749853 q -0.553257,0.553257 -1.290933,0.553257 0,0 -5.53257,0 0,0 0,-3.68838 h 4.794894 l 2.766285,-2.704812 V 25.497772 q 0,-0.799149 0.491784,-1.290933 l 2.3974467,-2.520393 -2.3974467,-2.45892 q -0.491784,-0.491784 -0.491784,-1.290933 V 7.4247105 l -2.766285,-2.7048119 h -4.794894 z"
         style="font-style:normal;font-variant:normal;font-weight:normal;font-stretch:normal;font-size:61.473px;font-family:'3270Medium Nerd Font';-inkscape-font-specification:'3270Medium Nerd Font';fill:#ffffff;stroke-width:0.320172"
         id="path23" />
    </g>
    <g
       aria-label="PR
SE"
       id="text6033"
       style="font-style:normal;font-variant:normal;font-weight:normal;font-stretch:normal;font-size:25.4px;line-height:0.64;font-family:'3270 Condensed';-inkscape-font-specification:'3270 Condensed, ';letter-spacing:0.79375px;word-spacing:0px;fill:#ffffff;fill-opacity:1;stroke:none;stroke-width:0.264583">
      <path
         d="m 15.86984,18.952621 h 5.08 l 2.6416,-2.667 v -0.9906 l -2.6162,-2.54 h -5.1054 z m 0,1.5748 v 4.6482 h -1.5748 v -13.9446 h 6.985 q 0.3302,0 0.5334,0.2032 l 3.048,3.0226 q 0.2286,0.2286 0.2286,0.508 v 1.6256 q 0,0.3302 -0.2032,0.5334 l -3.0734,3.1242 q -0.2794,0.2794 -0.5334,0.2794 z"
         style="font-style:normal;font-variant:normal;font-weight:normal;font-stretch:normal;font-size:25.4px;line-height:0.64;font-family:'3270Medium Nerd Font';-inkscape-font-specification:'3270Medium Nerd Font';letter-spacing:0.79375px;fill:#ffffff;stroke-width:0.264583"
         id="path26" />
      <path
         d="m 34.392771,18.927221 4.8768,4.9276 q 0.2286,0.2286 0.2286,0.5334 v 0.762 h -1.4986 v -0.4572 l -5.791199,-5.7658 h -1.9812 v 6.223 h -1.524 v -13.9192 h 8.508999 q 0.3048,0 0.5334,0.2286 l 1.5494,1.524 q 0.2286,0.2286 0.2286,0.5334 v 3.1242 q 0,0.3048 -0.2286,0.5334 l -1.4986,1.524 q -0.2286,0.2286 -0.5334,0.2286 z m -4.165599,-1.524 h 6.705599 l 1.0668,-1.0668 v -2.4892 l -1.0922,-1.0922 h -6.680199 z"
         style="font-style:normal;font-variant:normal;font-weight:normal;font-stretch:normal;font-size:25.4px;line-height:0.64;font-family:'3270Medium Nerd Font';-inkscape-font-specification:'3270Medium Nerd Font';letter-spacing:0.79375px;fill:#ffffff;stroke-width:0.264583"
         id="path28" />
      <path
         d="m 23.54064,31.023574 -0.9652,-1.016 h -5.588 l -1.0922,1.0922 v 0.8128 l 8.8392,6.0452 q 0.3302,0.2286 0.3302,0.635 v 1.4986 q 0,0.254 -0.2032,0.508 l -1.4478,1.5748 q -0.2794,0.2794 -0.5588,0.2794 h -6.2484 q -0.3048,0 -0.5334,-0.2286 l -1.5494,-1.5494 q -0.2286,-0.2286 -0.2286,-0.5334 v -0.7874 h 1.524 v 0.4826 l 1.0922,1.0668 h 5.6134 l 1.016,-1.1176 v -0.7874 l -8.8392,-6.0452 q -0.3302,-0.2286 -0.3302,-0.635 v -1.524 q 0,-0.3048 0.2286,-0.5334 l 1.5494,-1.5494 q 0.2032,-0.2032 0.5334,-0.2032 h 6.1976 q 0.3302,0 0.5334,0.2032 l 1.4732,1.4732 q 0.2286,0.2286 0.2286,0.5334 v 0.8128 h -1.5748 z"
         style="font-style:normal;font-variant:normal;font-weight:normal;font-stretch:normal;font-size:25.4px;line-height:0.64;font-family:'3270Medium Nerd Font';-inkscape-font-specification:'3270Medium Nerd Font';letter-spacing:0.79375px;fill:#ffffff;stroke-width:0.264583"
         id="path30" />
      <path
         d="m 28.779372,28.483574 h 10.744199 v 1.5494 h -9.194799 v 4.6482 h 6.095999 v 1.5494 h -6.095999 v 4.6736 h 9.194799 v 1.524 H 28.779372 Z"
         style="font-style:normal;font-variant:normal;font-weight:normal;font-stretch:normal;font-size:25.4px;line-height:0.64;font-family:'3270Medium Nerd Font';-inkscape-font-specification:'3270Medium Nerd Font';letter-spacing:0.79375px;fill:#ffffff;stroke-width:0.264583"
         id="path32" />
    </g>
  </g>
</svg>
